<svg width="20" height="20" viewBox="0 0 20 20" fill="none" xmlns="http://www.w3.org/2000/svg">
<path d="M15.8333 12.5V17.5M15.8333 17.5L14.1666 15.8333M15.8333 17.5L17.5 15.8333M10.8333 2.5H6.83329C5.89988 2.5 5.43316 2.5 5.07664 2.68166C4.76303 2.84144 4.50807 3.09641 4.34828 3.41002C4.16663 3.76653 4.16663 4.23325 4.16663 5.16667V14.8333C4.16663 15.7667 4.16663 16.2335 4.34828 16.59C4.50807 16.9036 4.76303 17.1586 5.07664 17.3183C5.43316 17.5 5.89988 17.5 6.83329 17.5H11.6666M10.8333 2.5L15.8333 7.5M10.8333 2.5V6.16667C10.8333 6.63337 10.8333 6.86673 10.9241 7.04499C11.004 7.20179 11.1315 7.32928 11.2883 7.40918C11.4665 7.5 11.6999 7.5 12.1666 7.5H15.8333M15.8333 7.5V9.16667" stroke="white" stroke-width="1.4" stroke-linecap="round" stroke-linejoin="round"/>
</svg>
